<?xml version="1.0" encoding="UTF-8" standalone="no"?>
<svg
   xmlns:dc="http://purl.org/dc/elements/1.1/"
   xmlns:cc="http://creativecommons.org/ns#"
   xmlns:rdf="http://www.w3.org/1999/02/22-rdf-syntax-ns#"
   xmlns:svg="http://www.w3.org/2000/svg"
   xmlns="http://www.w3.org/2000/svg"
   xmlns:sodipodi="http://sodipodi.sourceforge.net/DTD/sodipodi-0.dtd"
   xmlns:inkscape="http://www.inkscape.org/namespaces/inkscape"
   width="100%"
   height="100%"
   viewBox="0 0 1067 1063"
   version="1.1"
   xml:space="preserve"
   style="fill-rule:evenodd;clip-rule:evenodd;stroke-linejoin:round;stroke-miterlimit:1.41421;"
   id="svg8"
   sodipodi:docname="calendar-icon.svg"
   inkscape:version="0.92.1 r15371"><metadata
     id="metadata14"><rdf:RDF><cc:Work
         rdf:about=""><dc:format>image/svg+xml</dc:format><dc:type
           rdf:resource="http://purl.org/dc/dcmitype/StillImage" /></cc:Work></rdf:RDF></metadata><defs
     id="defs12" /><sodipodi:namedview
     pagecolor="#ffffff"
     bordercolor="#666666"
     borderopacity="1"
     objecttolerance="10"
     gridtolerance="10"
     guidetolerance="10"
     inkscape:pageopacity="0"
     inkscape:pageshadow="2"
     inkscape:window-width="1920"
     inkscape:window-height="1021"
     id="namedview10"
     showgrid="false"
     inkscape:zoom="0.22201317"
     inkscape:cx="542.50847"
     inkscape:cy="531.5"
     inkscape:window-x="1920"
     inkscape:window-y="26"
     inkscape:window-maximized="1"
     inkscape:current-layer="svg8" /><rect
     id="Calendar"
     x="3.832"
     y="0"
     width="1062.5"
     height="1062.5"
     style="fill:none;" /><g
     id="g4546"
     transform="matrix(10.168597,0,0,9.4888365,282.41132,284.04334)"><path
       id="path4491"
       d="m 38.853,5.324 v 0 c -7.098,-7.098 -18.607,-7.098 -25.706,0 v 0 C 6.751,11.72 6.031,23.763 11.459,31 L 26,52 40.541,31 C 45.969,23.763 45.249,11.72 38.853,5.324 Z M 26.177,24 c -3.314,0 -6,-2.686 -6,-6 0,-3.314 2.686,-6 6,-6 3.314,0 6,2.686 6,6 0,3.314 -2.686,6 -6,6 z"
       style="fill:#1081e0"
       inkscape:connector-curvature="0" /><g
       id="g4493" /><g
       id="g4495" /><g
       id="g4497" /><g
       id="g4499" /><g
       id="g4501" /><g
       id="g4503" /><g
       id="g4505" /><g
       id="g4507" /><g
       id="g4509" /><g
       id="g4511" /><g
       id="g4513" /><g
       id="g4515" /><g
       id="g4517" /><g
       id="g4519" /><g
       id="g4521" /></g></svg>